<svg xmlns="http://www.w3.org/2000/svg" viewBox="0 0 172 172">
  <g fill="none" stroke-miterlimit="10" font-family="none" font-size="none" font-weight="none" style="mix-blend-mode:normal" text-anchor="none">
    <path d="M0 172V0h172v172z"/>
    <circle cx="32" cy="32" r="17" fill="#ffc44d" transform="scale(2.6875)"/>
    <path fill="#fff7e6" d="M101.05 85.06744c4.49029-3.87183 6.22731-10.0551 4.41015-15.69883-1.81716-5.64373-6.83558-9.6519-12.7414-10.17642V53.75h-5.375v5.375h-5.375V53.75h-5.375v5.375h-10.75V64.5h5.375v43h-5.375v5.375h10.75v5.375h5.375v-5.375h5.375v5.375h5.375v-5.375h1.34375c6.77666.00081 12.68585-4.60666 14.33735-11.179 1.6515-6.57234-1.37777-13.42587-7.34985-16.62857zM76.59375 64.5H91.375c5.19493 0 9.40625 4.21132 9.40625 9.40625S96.56993 83.3125 91.375 83.3125H76.59375zm17.46875 43H76.59375V88.6875H94.0625c5.19493 0 9.40625 4.21132 9.40625 9.40625S99.25743 107.5 94.0625 107.5z"/>
    <path fill="#97b4d9" d="M85.94356 163.9375c-9.49409.01545-18.91006-1.71543-27.778-5.10625l1.91888-5.02025c27.21474 10.38211 57.99972 3.49445 78.19555-17.49504 20.19583-20.98949 25.89234-52.01697 14.46945-78.81152l4.94231-2.11237c9.87142 23.1554 7.95762 49.65196-5.13894 71.14842-13.09655 21.49646-35.76484 35.34851-60.86875 37.19545-1.92067.13438-3.83417.20156-5.7405.20156zm-72.77481-50.10306C2.40621 85.61156 8.90846 53.71182 29.85894 31.95313c20.95048-21.75868 52.58139-29.46315 81.19124-19.77607l-1.72537 5.09012c-26.63609-9.01313-56.08154-1.83736-75.58456 18.41974s-25.55713 49.95346-15.5405 76.22864z"/>
    <circle cx="10" cy="54" r="9" fill="#1890ff" transform="scale(2.6875)"/>
    <path fill="#e6e6e6" d="M28.89063 142.4375h-4.03125c-1.10329.24824-2.24623-.20304-2.88231-1.13807-.63608-.93503-.63608-2.16383 0-3.09886.63608-.93503 1.77902-1.38631 2.88231-1.13807h4.03125c1.66314-.16284 3.15316 1.02918 3.35938 2.6875h5.375c-.17134-4.36953-3.69178-7.86298-8.0625-8.00069V129h-5.375v2.74931c-4.37072.1377-7.89116 3.63116-8.0625 8.00069.19787 4.63262 4.10075 8.23528 8.73438 8.0625h4.03125c1.10329-.24824 2.24623.20304 2.88231 1.13807.63608.93503.63608 2.16383 0 3.09886-.63608.93503-1.77902 1.38631-2.88231 1.13807h-4.03125c-1.65668.14132-3.13359-1.0402-3.35937-2.6875h-5.375c.17134 4.36953 3.69178 7.86298 8.0625 8.00069V161.25h5.375v-2.74931c4.37072-.1377 7.89116-3.63116 8.0625-8.00069-.19787-4.63262-4.10075-8.23528-8.73437-8.0625z"/>
    <rect width="18" height="16" x="45" y="1" fill="#1890ff" rx="2" ry="0" transform="scale(2.6875)"/>
    <path fill="#e6e6e6" d="M131.6875 26.875h5.375v8.0625h-5.375zm10.75-6.71875h5.375V34.9375h-5.375zm10.75-6.71875h5.375v21.5h-5.375z"/>
  </g>
</svg>
